<?xml version="1.0" standalone="no"?>
<!DOCTYPE svg PUBLIC "-//W3C//DTD SVG 20010904//EN"
 "http://www.w3.org/TR/2001/REC-SVG-20010904/DTD/svg10.dtd">
<svg version="1.0" xmlns="http://www.w3.org/2000/svg"
 width="400.000000pt" height="400.000000pt" viewBox="0 0 400.000000 400.000000"
 preserveAspectRatio="xMidYMid meet">

<g transform="translate(0.000000,400.000000) scale(0.100000,-0.100000)"
fill="#000000" stroke="none">
<path d="M0 2340 c0 -1311 3 -1665 12 -1680 9 -14 10 -23 3 -28 -6 -4 -11 -36
-12 -71 -2 -50 0 -62 10 -52 7 7 12 17 12 24 0 7 11 11 25 9 30 -3 33 -6 33
-37 0 -14 5 -25 13 -25 7 0 11 6 8 14 -3 8 -1 17 5 20 6 4 7 14 4 22 -3 9 3
21 17 31 15 11 19 18 11 26 -17 17 -13 31 4 17 18 -15 20 -47 3 -52 -9 -3 -8
-9 5 -22 13 -14 15 -22 6 -38 -8 -15 -8 -19 0 -14 7 5 11 -2 11 -17 0 -28 26
-43 46 -26 20 16 59 -28 68 -75 4 -20 15 -40 26 -46 11 -6 20 -16 20 -23 0 -7
15 -30 33 -50 23 -24 31 -39 24 -46 -16 -16 13 -43 38 -37 16 4 28 -1 41 -19
10 -13 21 -22 24 -20 11 7 51 -26 45 -36 -4 -5 5 -9 19 -9 19 0 27 -7 32 -26
4 -17 11 -23 21 -20 9 4 17 -1 20 -14 5 -19 15 -20 591 -20 663 0 611 -6 710
86 31 29 60 54 65 54 4 0 7 8 7 18 0 9 14 30 30 45 17 16 30 35 30 43 0 8 5
14 11 14 7 0 9 10 7 25 -5 22 -2 25 15 19 18 -6 19 -3 13 29 -5 26 -3 36 8 40
8 3 16 16 18 29 2 13 10 23 18 23 9 0 16 11 18 28 2 15 7 27 12 27 5 0 7 7 4
15 -4 8 1 17 9 21 8 3 18 21 22 41 7 38 23 73 40 86 6 4 5 10 -4 16 -11 7 -11
15 -2 43 6 19 9 42 5 51 -5 14 1 17 32 18 22 1 44 0 49 -1 6 -2 28 -7 50 -13
22 -5 48 -13 57 -18 9 -5 35 -12 57 -15 22 -4 39 -11 38 -17 -1 -6 15 -15 36
-20 20 -5 37 -13 37 -18 0 -5 9 -9 21 -9 14 0 19 -5 16 -14 -4 -10 -1 -13 9
-9 8 3 20 1 27 -5 6 -5 30 -15 52 -21 41 -13 77 -27 107 -42 10 -5 22 -9 28
-9 6 0 20 -9 32 -20 12 -11 30 -20 39 -20 10 0 30 -5 43 -12 22 -9 29 -8 46 7
22 20 50 14 50 -12 0 -20 87 -73 119 -73 11 0 23 -5 26 -10 3 -6 17 -10 31
-10 13 0 24 -4 24 -10 0 -5 9 -10 19 -10 11 0 23 -5 27 -11 3 -6 15 -9 25 -6
10 3 21 1 24 -4 3 -5 25 -13 47 -20 89 -24 217 -95 264 -148 25 -28 50 -51 55
-51 4 0 30 -22 57 -50 54 -56 72 -62 72 -25 0 14 3 26 8 26 71 11 82 5 82 -43
0 -26 -3 -28 -42 -29 -24 -1 -35 -3 -25 -6 9 -2 15 -9 12 -14 -4 -5 16 -9 44
-9 l51 0 0 2000 0 2000 -2000 0 -2000 0 0 -1660z m1562 1341 c-1 -7 2 -10 7
-7 21 13 21 -16 0 -50 -15 -25 -17 -35 -7 -32 7 2 14 -1 15 -7 3 -18 -61 -5
-79 16 -16 19 -18 19 -42 3 -36 -23 -60 -13 -44 20 9 20 16 24 35 20 17 -5 23
-2 23 10 0 9 6 16 14 16 7 0 16 9 19 19 4 17 10 18 33 12 16 -5 28 -14 26 -20z
m1406 -17 c14 -7 29 -11 34 -8 10 6 11 -30 1 -39 -3 -4 -13 -1 -21 5 -8 7 -31
18 -50 25 -43 15 -52 7 -52 -49 0 -21 -4 -38 -9 -38 -21 0 -21 107 1 121 12 8
66 -1 96 -17z m730 -73 c2 -48 0 -62 -10 -58 -8 2 -12 16 -10 31 2 16 -1 25
-6 22 -5 -3 -8 5 -8 17 1 20 -3 22 -39 19 -22 -2 -46 -9 -52 -14 -7 -6 -13 -8
-13 -5 0 3 -3 12 -6 21 -5 12 0 16 19 16 14 0 29 5 32 11 4 5 26 9 48 7 l42
-3 3 -64z m-2042 28 c19 -21 19 -21 -6 -18 -14 2 -26 12 -28 22 -5 23 11 22
34 -4z m1575 -24 c5 4 9 2 9 -3 0 -13 -27 -23 -45 -16 -19 8 -19 10 3 32 16
17 17 17 20 0 2 -10 8 -16 13 -13z m222 21 c35 -27 16 -56 -37 -56 -28 0 -61
34 -53 55 8 19 65 20 90 1z m-456 -38 c-3 -8 -6 -5 -6 6 -1 11 2 17 5 13 3 -3
4 -12 1 -19z m570 -35 c-3 -10 -5 -4 -5 12 0 17 2 24 5 18 2 -7 2 -21 0 -30z
m-2141 -20 c-11 -11 -17 4 -9 23 7 18 8 18 11 1 2 -10 1 -21 -2 -24z m1561 -5
c18 -7 33 -16 33 -20 0 -4 6 -8 13 -8 7 0 23 -9 35 -20 12 -11 28 -20 36 -20
8 0 16 -3 18 -7 2 -5 46 -30 98 -56 79 -40 100 -47 120 -39 14 5 35 8 48 6 21
-4 26 4 23 32 -1 7 4 14 11 17 7 3 44 28 81 56 63 47 117 66 117 41 0 -5 14
-10 30 -10 17 0 30 -4 30 -10 0 -5 9 -10 21 -10 11 0 17 -4 14 -10 -3 -5 -15
-10 -26 -10 -25 0 -24 -25 2 -51 20 -20 23 -20 31 -5 5 9 6 25 3 36 -10 30 20
25 34 -6 16 -36 4 -90 -32 -144 -34 -50 -85 -100 -104 -100 -7 0 -13 -4 -13
-10 0 -5 -8 -10 -18 -10 -10 0 -22 -3 -26 -7 -12 -12 -106 -15 -120 -4 -13 11
-67 -1 -93 -21 -7 -5 -57 -9 -112 -9 -81 1 -107 5 -136 21 -20 11 -47 20 -60
20 -14 0 -25 5 -25 10 0 6 -9 10 -20 10 -11 0 -20 4 -20 8 0 5 -16 14 -35 22
-19 7 -32 17 -29 22 3 4 0 8 -7 8 -6 0 -21 11 -33 23 -58 64 -76 88 -76 97 0
5 -4 10 -10 10 -5 0 -10 7 -10 15 0 8 -5 24 -12 34 -9 15 -9 23 1 35 8 9 19
16 26 16 7 0 18 7 25 15 7 8 16 13 20 10 5 -3 24 3 42 14 39 23 60 25 105 9z
m143 -7 c0 -10 -7 -22 -16 -25 -19 -7 -37 2 -29 15 4 5 1 9 -5 9 -6 0 -8 5 -5
10 3 6 17 10 31 10 17 0 24 -6 24 -19z m-1498 -136 c5 -8 24 -10 58 -7 31 3
50 1 50 -6 0 -6 19 -13 43 -17 67 -10 106 -27 100 -42 -4 -9 4 -13 27 -13 18
0 45 -8 61 -17 50 -30 34 -42 -48 -36 -49 3 -53 1 -67 -26 -15 -27 -59 -47
-95 -42 -12 2 -12 -1 1 -21 18 -29 10 -72 -12 -58 -19 13 -30 12 -30 0 0 -5 7
-10 15 -10 8 0 19 -9 25 -20 6 -11 16 -20 23 -20 14 -1 62 -39 55 -45 -7 -8
-78 7 -73 15 3 5 -4 6 -14 3 -11 -3 -37 1 -58 8 -21 7 -60 11 -86 10 -26 -1
-54 2 -62 9 -7 6 -33 12 -57 14 -23 2 -56 9 -73 16 -16 7 -55 15 -85 18 -30 2
-58 9 -61 14 -3 5 -34 11 -68 12 -39 2 -66 7 -71 16 -5 7 -28 15 -52 17 -77 6
-112 16 -132 36 l-21 20 22 -6 c13 -3 27 1 34 9 13 16 55 19 64 4 3 -5 22 -10
41 -10 19 0 34 -4 34 -8 0 -13 133 -32 220 -32 44 0 80 4 80 8 0 5 -50 12
-111 15 -67 4 -123 13 -142 22 -16 8 -36 15 -44 15 -8 0 -11 5 -8 10 4 6 -21
10 -69 10 -41 0 -78 5 -81 10 -3 6 -1 10 4 10 6 0 11 6 11 14 0 13 25 15 82 7
4 -1 13 -8 22 -16 10 -10 24 -13 41 -9 24 6 25 10 23 63 -3 55 -3 56 25 57 19
1 26 -3 23 -12 -3 -8 0 -11 10 -7 8 3 14 -1 14 -11 0 -12 10 -16 43 -16 24 0
48 5 54 11 7 7 29 13 50 15 21 3 61 11 88 19 86 25 162 25 177 0z m-349 -10
c1 -5 -6 -11 -15 -13 -11 -2 -18 3 -18 13 0 17 30 18 33 0z m-157 -30 c2 -24
0 -25 -65 -24 -36 1 -56 4 -43 6 12 2 22 9 22 14 0 5 12 9 28 9 19 0 57 13 57
20 0 0 1 -11 1 -25z m2692 -185 c12 -16 22 -34 22 -40 0 -6 7 -13 15 -16 19
-8 19 -23 0 -48 -12 -16 -18 -17 -27 -8 -7 7 -23 12 -35 12 -30 0 -73 42 -73
71 0 29 28 59 55 59 12 0 31 -13 43 -30z m-885 -31 c20 -17 37 -36 37 -43 0
-15 -100 -66 -129 -66 -16 0 -21 6 -21 25 0 14 5 25 10 25 6 0 10 9 10 20 0
25 28 70 44 70 6 0 28 -14 49 -31z m-1847 -17 c28 -15 151 -35 170 -28 8 3 64
-5 122 -18 59 -13 144 -29 190 -36 45 -7 85 -16 88 -21 3 -5 18 -9 35 -9 16 0
29 -4 29 -10 0 -5 8 -10 18 -10 18 0 84 -39 67 -41 -5 0 1 -5 14 -10 15 -6 21
-14 17 -25 -3 -9 -6 -23 -6 -31 0 -12 -3 -13 -14 -4 -10 8 -16 9 -21 1 -3 -5
-16 -8 -28 -5 -12 2 -85 7 -162 10 -77 3 -153 6 -170 7 -65 3 -114 -3 -127
-15 -7 -7 -22 -13 -33 -14 -58 -3 -85 -17 -85 -46 0 -12 -7 -31 -15 -41 -8
-11 -15 -28 -15 -39 0 -10 -5 -15 -10 -12 -6 4 -8 10 -5 15 3 5 1 11 -4 14 -5
4 -13 -4 -17 -16 l-7 -23 -8 23 c-6 16 -16 22 -38 22 -32 0 -51 22 -51 59 0
11 -9 25 -20 31 -11 6 -20 15 -20 20 0 19 -80 90 -102 91 -22 0 -22 1 -3 9 11
5 14 9 6 9 -8 1 -19 8 -25 16 -6 9 -28 16 -49 17 -20 1 -37 5 -37 10 0 4 6 8
13 8 8 0 7 3 -3 10 -22 14 -3 25 43 25 39 0 42 2 42 28 1 27 4 29 48 32 27 1
51 6 55 9 9 10 94 1 118 -12z m1214 -7 c0 -14 -4 -25 -10 -25 -5 0 -10 11 -10
25 0 14 5 25 10 25 6 0 10 -11 10 -25z m1287 -29 c13 -11 23 -29 23 -39 0 -11
-3 -17 -7 -14 -3 4 -17 0 -30 -8 -25 -17 -43 -13 -43 11 0 8 -4 14 -10 14 -5
0 -10 9 -10 20 0 11 -4 20 -10 20 -18 0 -10 17 13 27 23 11 26 10 74 -31z
m-380 -29 c4 -6 -2 -8 -18 -4 -21 5 -22 4 -7 -6 12 -9 14 -17 7 -30 -12 -20
-28 -21 -64 -5 -25 11 -36 53 -14 60 19 6 89 -4 96 -15z m13 -108 c0 -9 6 -19
13 -22 8 -3 1 -16 -20 -38 -32 -33 -33 -33 -62 -16 -15 9 -31 14 -35 10 -3 -3
-6 1 -6 9 0 9 15 34 33 55 28 35 35 39 55 30 12 -6 22 -18 22 -28z m-777 1 c7
0 17 -10 22 -22 6 -13 14 -22 19 -20 4 2 15 -9 22 -24 16 -30 19 -58 3 -32
-13 24 -38 12 -31 -14 3 -14 1 -19 -6 -14 -10 6 -12 0 -28 -89 l-7 -40 -9 34
c-7 25 -12 31 -21 22 -18 -18 -37 -13 -37 12 0 24 -25 67 -47 80 -18 11 -16
27 2 27 24 0 17 29 -10 42 -28 13 -38 62 -10 52 8 -4 15 -10 15 -14 0 -12 39
-19 46 -9 6 10 44 -7 56 -25 4 -6 5 7 3 29 -2 22 -2 32 1 23 3 -10 11 -18 17
-18z m1397 -10 c0 -5 -4 -10 -10 -10 -5 0 -10 5 -10 10 0 6 5 10 10 10 6 0 10
-4 10 -10z m-250 -90 c17 -17 30 -35 30 -40 0 -11 -62 -70 -73 -70 -5 0 -22
14 -37 30 -36 38 -50 38 -93 -4 l-35 -34 24 -11 c13 -6 24 -19 24 -30 0 -11 5
-21 11 -23 11 -4 14 -58 6 -101 -2 -10 -19 -33 -39 -52 -30 -30 -36 -43 -40
-91 -4 -43 -11 -61 -32 -82 -23 -23 -34 -27 -86 -26 -53 1 -63 4 -85 30 -32
37 -33 83 -2 112 12 11 65 43 117 69 107 54 125 80 72 104 -29 12 -29 14 -14
37 12 19 13 28 4 43 -17 27 -15 38 8 32 11 -3 20 -2 20 2 0 8 -26 35 -35 35
-4 0 -13 7 -21 15 -14 13 -14 17 2 32 13 14 32 17 91 15 62 -2 77 1 95 18 30
28 54 25 88 -10z m-442 -87 c15 -10 38 -28 51 -40 l24 -22 -28 -7 c-20 -5 -30
-3 -37 10 -5 9 -14 16 -21 16 -7 0 -20 14 -29 30 -15 26 -15 30 -2 30 8 0 27
-8 42 -17z m-2118 -13 c0 -5 -5 -10 -11 -10 -5 0 -7 5 -4 10 3 6 8 10 11 10 2
0 4 -4 4 -10z m1287 -27 c-3 -10 -5 -4 -5 12 0 17 2 24 5 18 2 -7 2 -21 0 -30z
m381 -11 c4 -27 -22 -40 -43 -22 -8 7 -15 21 -15 32 0 30 54 21 58 -10z m857
-42 c-3 -6 -13 -10 -20 -10 -12 0 -12 5 -3 25 10 22 13 23 20 10 5 -8 6 -20 3
-25z m-2422 -13 c13 -24 16 -39 9 -58 -5 -13 -13 -48 -17 -76 -4 -29 -11 -53
-17 -53 -17 0 -70 -59 -62 -71 3 -6 -3 -24 -15 -40 -24 -32 -25 -42 -9 -68 9
-15 7 -26 -9 -57 -25 -49 -86 -84 -155 -90 -51 -4 -54 -3 -81 31 -31 38 -30
69 3 78 13 3 18 11 14 21 -4 10 0 18 10 22 9 3 16 12 16 19 0 8 9 17 20 20 11
4 18 11 15 16 -4 5 0 9 8 9 7 0 31 29 51 65 21 35 45 70 52 76 8 6 14 18 14
26 0 8 5 11 10 8 6 -3 10 4 10 18 0 60 44 133 73 121 8 -3 18 -1 22 5 10 18
20 13 38 -22z m1977 -22 c0 -9 -6 -12 -15 -9 -8 4 -15 10 -15 15 0 5 7 9 15 9
8 0 15 -7 15 -15z m630 -4 c0 -11 -31 -24 -39 -16 -3 3 1 10 9 15 19 12 30 12
30 1z m-3027 -31 c-19 -33 -31 -38 -39 -15 -8 20 13 45 38 45 19 0 19 -1 1
-30z m1047 11 c0 -12 -28 -22 -34 -12 -3 5 -3 11 1 15 9 9 33 7 33 -3z m1298
0 c8 -4 14 -23 14 -42 1 -111 -9 -118 -91 -60 -33 22 -64 41 -70 41 -30 0 6
47 42 55 12 2 31 6 42 8 34 8 49 7 63 -2z m810 -42 c46 -21 53 -34 22 -44 -11
-4 -51 -26 -88 -51 -37 -24 -70 -44 -74 -44 -13 0 -8 124 5 141 23 31 62 30
135 -2z m-2264 -18 c4 -5 -3 -7 -14 -4 -23 6 -26 13 -6 13 8 0 17 -4 20 -9z
m-133 -84 c-14 -14 -15 -77 -1 -77 6 0 10 -8 10 -17 0 -14 -2 -15 -9 -4 -5 8
-18 12 -30 8 -16 -4 -21 -1 -21 14 0 10 -4 19 -10 19 -5 0 -10 7 -10 15 0 8 5
15 10 15 6 0 10 7 10 14 0 8 12 21 28 28 28 14 43 5 23 -15z m-191 -32 c0 -19
-4 -23 -17 -18 -37 13 -38 43 -2 43 14 0 19 -7 19 -25z m-720 -35 c8 -11 20
-20 28 -20 7 0 10 -4 7 -10 -5 -9 127 -17 160 -10 27 5 78 9 61 4 -13 -4 -15
-8 -7 -13 8 -6 -3 -24 -37 -57 -27 -27 -57 -63 -66 -81 -12 -24 -27 -35 -56
-43 -21 -6 -42 -15 -45 -20 -15 -24 -125 0 -125 26 0 8 -9 14 -19 14 -16 0
-19 6 -18 35 1 20 7 35 15 35 15 0 16 12 1 27 -8 8 -7 20 5 44 9 18 16 40 16
51 0 13 7 18 25 18 14 0 25 5 25 10 0 16 15 11 30 -10z m663 -12 c12 -7 30
-20 41 -28 10 -8 20 -14 22 -12 10 6 24 1 24 -8 0 -17 51 -58 100 -82 61 -29
248 -38 285 -14 14 9 25 23 25 31 0 23 28 18 35 -6 4 -13 12 -18 22 -15 9 4
22 1 29 -5 10 -8 19 -7 35 4 26 19 88 11 106 -12 16 -20 17 -61 2 -61 -7 0 -9
-9 -6 -22 8 -28 -22 -65 -51 -63 -16 1 -22 -4 -22 -20 0 -12 -11 -32 -25 -45
-14 -13 -23 -30 -21 -37 4 -9 -3 -13 -20 -13 -16 0 -34 -10 -46 -26 -15 -18
-24 -22 -31 -15 -6 6 -15 11 -21 11 -5 0 -6 -3 -3 -7 9 -9 -22 -43 -40 -43 -7
0 -13 -7 -13 -15 0 -18 -46 -21 -52 -4 -2 7 -13 9 -26 5 -12 -4 -20 -12 -17
-17 4 -5 -8 -9 -26 -9 -27 0 -30 2 -19 15 11 13 8 16 -18 21 -17 4 -35 16 -43
30 -7 13 -18 24 -24 24 -7 0 -33 23 -59 50 -26 28 -53 50 -61 50 -8 0 -15 6
-15 14 0 19 -68 85 -100 97 -35 13 -89 139 -60 139 5 0 10 6 10 14 0 20 40 86
51 86 5 0 19 -6 32 -12z m376 -32 c-2 -2 -26 -6 -54 -10 -34 -4 -43 -3 -30 3
19 9 93 15 84 7z m51 -26 c0 -6 -9 -10 -20 -10 -11 0 -20 -4 -20 -10 0 -5 -6
-10 -14 -10 -8 0 -13 8 -11 18 2 9 4 17 4 17 1 0 15 1 31 2 17 1 30 -2 30 -7z
m2238 -22 c7 -7 12 -20 12 -30 0 -13 -8 -18 -30 -18 -25 0 -30 4 -30 23 0 37
24 49 48 25z m-2688 -168 c0 -5 -2 -10 -4 -10 -3 0 -8 5 -11 10 -3 6 -1 10 4
10 6 0 11 -4 11 -10z m-74 -34 c18 -18 18 -22 -2 -30 -8 -3 -12 -2 -9 4 3 6
-5 10 -20 10 -22 0 -24 2 -13 15 17 18 26 18 44 1z m1934 -72 c0 -34 -1 -35
-32 -32 -29 3 -33 7 -36 35 -3 28 0 32 25 35 39 5 43 2 43 -38z m-1775 -146
c-4 -42 -3 -40 -16 -32 -8 4 -7 9 2 15 10 6 6 9 -13 9 -30 0 -34 10 -18 41 17
31 48 8 45 -33z m1179 -35 c-22 -68 -49 -103 -81 -103 -26 0 -26 0 -14 -33 25
-66 17 -123 -25 -164 -27 -28 -119 -9 -145 30 -12 18 3 48 21 42 14 -4 18 2
23 34 6 48 69 117 102 113 20 -3 20 -2 1 13 -19 15 -16 29 7 30 19 2 85 34 92
45 10 17 25 11 19 -7z m-1587 -89 c-3 -3 -12 -4 -19 -1 -8 3 -5 6 6 6 11 1 17
-2 13 -5z m83 -35 c0 -11 -5 -17 -10 -14 -6 4 -8 10 -5 15 3 4 -1 11 -7 13 -8
3 -6 6 5 6 11 1 17 -6 17 -20z m2290 11 c0 -5 -4 -10 -10 -10 -5 0 -10 5 -10
10 0 6 5 10 10 10 6 0 10 -4 10 -10z m-162 -32 c22 -22 14 -40 -15 -36 -28 3
-38 26 -18 40 14 11 19 10 33 -4z m-653 -17 c-3 -6 -11 -8 -17 -5 -6 4 -5 9 3
15 16 10 23 4 14 -10z m1113 -9 c2 -7 -3 -12 -12 -12 -9 0 -16 7 -16 16 0 17
22 14 28 -4z m-519 -36 c18 -21 10 -101 -9 -101 -11 0 -17 15 -21 50 -8 66 3
84 30 51z m127 -11 c9 -23 -3 -45 -21 -39 -20 8 -20 54 0 54 9 0 18 -7 21 -15z
m282 -59 c-2 -13 -10 -21 -23 -21 -23 0 -33 34 -14 45 20 13 40 -1 37 -24z
m-2440 2 c-6 -17 -32 -21 -74 -13 -53 10 -40 25 22 25 40 0 55 -3 52 -12z
m295 -107 c-10 -17 -23 -31 -29 -31 -7 0 -14 -6 -17 -14 -6 -16 -77 -20 -77
-4 0 6 7 8 15 4 11 -4 15 2 15 20 0 19 4 25 15 20 8 -3 20 0 27 7 14 13 61 36
66 32 1 -1 -5 -16 -15 -34z m397 -11 c0 -5 -2 -10 -4 -10 -3 0 -8 5 -11 10 -3
6 -1 10 4 10 6 0 11 -4 11 -10z m1363 -12 c17 -27 -9 -48 -58 -48 -39 0 -44 3
-53 29 -12 35 -6 39 57 37 29 -1 47 -7 54 -18z m467 3 c0 -11 -5 -23 -11 -27
-15 -9 -33 12 -26 30 9 23 37 20 37 -3z m-756 -6 c8 -23 -4 -45 -25 -45 -14 0
-19 7 -19 30 0 23 5 30 19 30 10 0 21 -7 25 -15z m576 -76 c16 -29 5 -51 -22
-47 -38 5 -34 67 4 68 4 0 12 -9 18 -21z m-720 -19 c0 -5 -4 -10 -10 -10 -5 0
-10 5 -10 10 0 6 5 10 10 10 6 0 10 -4 10 -10z m852 -25 c-4 -37 -3 -35 -30
-28 -16 4 -22 13 -22 35 0 26 3 29 28 26 24 -3 27 -7 24 -33z m199 23 c2 -22
-2 -43 -12 -52 -5 -6 -9 4 -9 27 0 33 18 55 21 25z m-661 -69 c0 -25 3 -67 6
-93 l7 -46 -32 0 c-32 0 -33 3 -22 72 0 4 8 5 16 2 11 -5 15 1 15 25 0 17 -3
30 -7 30 -33 -5 -43 3 -43 35 0 37 15 49 43 32 12 -8 17 -24 17 -57z m-2155
31 c22 -11 47 -20 57 -20 9 0 21 -8 27 -17 9 -16 11 -16 20 7 7 19 10 21 10 6
1 -14 6 -17 22 -13 12 3 29 1 39 -5 20 -13 83 -3 102 15 7 7 35 20 63 29 47
16 50 16 67 -2 17 -18 17 -20 -5 -54 -19 -31 -26 -34 -54 -30 -28 5 -31 4 -26
-15 4 -17 1 -21 -18 -21 -42 0 -98 -20 -129 -46 -23 -20 -29 -33 -27 -57 2
-30 0 -32 -33 -35 l-35 -3 29 27 c28 26 28 28 10 41 -11 8 -27 11 -36 8 -10
-3 -27 -8 -37 -11 -13 -4 -23 1 -31 16 -10 18 -8 25 12 43 13 12 34 29 46 37
16 11 19 19 13 29 -8 12 -12 9 -22 -13 -10 -21 -18 -26 -33 -22 -12 3 -33 6
-47 6 -14 0 -36 9 -48 19 -12 10 -37 22 -55 25 -26 5 -35 12 -39 32 -3 19 1
28 17 34 37 15 101 11 141 -10z m2553 -2 c20 -20 15 -58 -8 -58 -26 0 -46 36
-29 56 14 17 21 18 37 2z m-333 -68 c0 -29 -4 -35 -22 -36 -19 -1 -23 4 -23
31 0 36 7 47 30 43 10 -2 15 -15 15 -38z m-395 4 c0 -8 6 -13 13 -11 6 1 12
-5 13 -13 0 -8 4 -30 8 -49 9 -37 -3 -52 -34 -44 -15 4 -19 17 -22 66 -2 34
-2 65 0 70 5 11 22 -2 22 -19z m802 -1 c10 -9 18 -21 18 -26 0 -6 -3 -7 -7 -4
-3 4 -12 2 -20 -4 -20 -18 -46 7 -32 32 12 23 17 24 41 2z m354 -11 c7 -4 14
-20 15 -37 4 -26 0 -30 -26 -35 -55 -11 -60 -8 -63 38 -3 42 -3 42 30 42 18 0
38 -4 44 -8z m-393 -140 c3 -21 8 -49 10 -64 6 -32 -14 -52 -41 -44 -16 6 -20
18 -24 74 -5 69 1 83 32 75 12 -3 20 -18 23 -41z m-2313 18 c0 -14 -40 -32
-57 -25 -25 9 1 26 50 34 4 0 7 -3 7 -9z m1430 -10 c0 -5 -2 -10 -4 -10 -3 0
-8 5 -11 10 -3 6 -1 10 4 10 6 0 11 -4 11 -10z m1093 -40 c5 -4 7 -16 5 -26
-2 -14 -13 -19 -38 -20 -36 -1 -37 -2 -29 -54 3 -21 0 -25 -21 -25 -23 0 -26
5 -34 63 -5 34 -14 62 -20 63 -6 1 0 5 14 9 29 9 111 3 123 -10z m-552 -56 c6
-62 -5 -90 -30 -75 -8 5 -15 35 -18 75 -6 65 -5 66 18 63 21 -4 25 -10 30 -63z
m209 6 c15 -28 26 -215 13 -223 -22 -14 -42 18 -44 71 -2 28 -6 52 -11 52 -10
0 -11 104 -1 113 12 13 32 7 43 -13z m-870 0 c0 -5 -4 -10 -10 -10 -5 0 -10 5
-10 10 0 6 5 10 10 10 6 0 10 -4 10 -10z m512 -18 c6 -43 0 -52 -38 -52 -33 0
-34 1 -34 40 0 39 1 40 34 40 29 0 34 -4 38 -28z m584 -119 c12 -78 -38 -81
-51 -3 -8 47 -2 60 25 53 14 -4 21 -17 26 -50z m204 2 c0 -26 -14 -33 -25 -15
-9 14 1 40 15 40 5 0 10 -11 10 -25z m-622 -53 c3 -28 0 -32 -21 -32 -20 0
-25 5 -25 28 0 35 6 44 26 40 11 -2 18 -15 20 -36z m-382 6 c4 -7 9 -34 11
-62 3 -49 -6 -65 -34 -66 -12 0 -29 113 -18 129 8 15 32 14 41 -1z m-216 -11
c0 -18 37 -40 43 -24 2 7 -3 17 -12 24 -13 10 -10 12 22 13 37 0 37 0 37 -40
0 -45 -24 -65 -44 -38 -6 8 -21 18 -33 22 -27 9 -47 32 -38 46 9 14 25 13 25
-3z m445 -37 c0 -38 -39 -35 -43 3 -3 25 0 28 20 25 17 -2 23 -9 23 -28z m570
-58 c0 -18 -20 -15 -23 4 -3 10 1 15 10 12 7 -3 13 -10 13 -16z m-393 -93 c1
-27 2 -57 2 -66 1 -11 -7 -19 -20 -21 -20 -3 -22 3 -29 64 -5 49 -4 69 6 74
25 16 39 -2 41 -51z m408 -18 c0 -6 -4 -13 -10 -16 -5 -3 -10 1 -10 9 0 9 5
16 10 16 6 0 10 -4 10 -9z m-3430 -11 c0 -5 -4 -10 -10 -10 -5 0 -10 5 -10 10
0 6 5 10 10 10 6 0 10 -4 10 -10z m3168 -85 c7 -14 12 -28 12 -31 0 -9 -50
-23 -65 -18 -15 6 -21 55 -8 67 16 16 50 6 61 -18z m-1820 -68 c8 -9 32 -11
94 -6 88 7 115 -1 82 -25 -10 -8 -16 -17 -12 -21 11 -12 48 6 48 23 1 31 29
-31 30 -64 0 -23 -5 -33 -20 -37 -12 -3 -20 -14 -20 -25 0 -30 -10 -52 -24
-52 -7 0 -18 -6 -24 -12 -7 -7 -18 -13 -25 -14 -40 -4 -80 -34 -45 -34 7 0 4
-9 -8 -21 -18 -17 -24 -19 -47 -8 -21 10 -51 10 -135 1 -132 -15 -227 -15
-252 -2 -11 6 -37 11 -60 13 -44 3 -87 39 -93 76 -2 11 -6 24 -10 27 -10 10
-9 46 3 81 10 27 16 30 85 42 63 10 78 10 102 -2 16 -9 56 -17 90 -20 34 -3
66 -8 71 -11 12 -7 75 4 67 12 -2 3 1 12 8 20 10 12 9 16 -1 20 -9 2 -1 13 20
28 37 26 61 30 76 11z m512 -235 c0 -4 -9 -13 -19 -19 -16 -10 -18 -9 -14 8 5
18 33 28 33 11z"/>
<path d="M1506 3643 c-12 -13 -5 -20 19 -20 14 0 25 1 25 3 0 8 -38 23 -44 17z"/>
<path d="M2878 3412 c-25 -5 -24 -52 0 -52 33 0 58 43 30 52 -7 2 -21 3 -30 0z"/>
<path d="M3386 3321 c-7 -10 52 -26 61 -17 8 8 3 12 -29 20 -15 3 -29 2 -32
-3z"/>
<path d="M3490 3320 c0 -5 5 -10 10 -10 6 0 10 5 10 10 0 6 -4 10 -10 10 -5 0
-10 -4 -10 -10z"/>
<path d="M3310 3196 c0 -27 15 -42 25 -26 4 6 11 8 16 5 5 -4 9 -2 9 4 0 5 3
16 6 25 5 13 -1 16 -25 16 -26 0 -31 -4 -31 -24z"/>
<path d="M1695 3170 c-3 -5 3 -10 15 -10 12 0 18 5 15 10 -3 6 -10 10 -15 10
-5 0 -12 -4 -15 -10z"/>
<path d="M2431 2834 c0 -11 3 -14 6 -6 3 7 2 16 -1 19 -3 4 -6 -2 -5 -13z"/>
<path d="M688 2323 c6 -2 18 -2 25 0 6 3 1 5 -13 5 -14 0 -19 -2 -12 -5z"/>
<path d="M1120 1220 c0 -5 9 -10 20 -10 11 0 20 5 20 10 0 6 -9 10 -20 10 -11
0 -20 -4 -20 -10z"/>
<path d="M38 483 c7 -3 16 -2 19 1 4 3 -2 6 -13 5 -11 0 -14 -3 -6 -6z"/>
<path d="M121 464 c0 -11 3 -14 6 -6 3 7 2 16 -1 19 -3 4 -6 -2 -5 -13z"/>
<path d="M90 430 c0 -19 -5 -30 -14 -30 -7 0 -16 -9 -19 -20 -3 -13 0 -20 9
-20 8 0 14 5 14 11 0 5 5 7 10 4 6 -4 10 12 10 39 0 25 -2 46 -5 46 -3 0 -5
-13 -5 -30z"/>
<path d="M180 363 c0 -20 3 -33 8 -29 4 4 7 21 7 37 0 16 -3 29 -7 29 -5 0 -8
-16 -8 -37z"/>
<path d="M211 344 c0 -11 3 -14 6 -6 3 7 2 16 -1 19 -3 4 -6 -2 -5 -13z"/>
<path d="M2932 268 c6 -18 28 -21 28 -4 0 9 -7 16 -16 16 -9 0 -14 -5 -12 -12z"/>
<path d="M200 260 c0 -5 5 -10 10 -10 6 0 10 5 10 10 0 6 -4 10 -10 10 -5 0
-10 -4 -10 -10z"/>
<path d="M2960 241 c-7 -14 -5 -30 10 -63 11 -23 20 -49 20 -56 0 -7 9 -32 20
-54 11 -23 20 -48 20 -55 0 -8 12 -13 30 -13 24 0 28 3 23 18 -3 9 -10 22 -15
28 -5 7 -8 16 -7 20 1 5 -7 29 -18 54 -51 114 -64 140 -68 140 -2 0 -9 -9 -15
-19z"/>
<path d="M242 100 c0 -14 2 -19 5 -12 2 6 2 18 0 25 -3 6 -5 1 -5 -13z"/>
</g>
</svg>
